<?xml version="1.0" encoding="UTF-8" standalone="no"?>
<svg
   version="1.1"
   width="600"
   height="600"
   viewBox="0 0 600 600"
   xml:space="preserve"
   id="svg28"
   sodipodi:docname="icon-600x600.svg"
   inkscape:version="1.2.2 (732a01da63, 2022-12-09)"
   inkscape:export-filename="icon-600x600.png"
   inkscape:export-xdpi="96"
   inkscape:export-ydpi="96"
   xmlns:inkscape="http://www.inkscape.org/namespaces/inkscape"
   xmlns:sodipodi="http://sodipodi.sourceforge.net/DTD/sodipodi-0.dtd"
   xmlns="http://www.w3.org/2000/svg"
   xmlns:svg="http://www.w3.org/2000/svg"><sodipodi:namedview
   id="namedview30"
   pagecolor="#ffffff"
   bordercolor="#000000"
   borderopacity="0.25"
   inkscape:showpageshadow="2"
   inkscape:pageopacity="0.0"
   inkscape:pagecheckerboard="0"
   inkscape:deskcolor="#d1d1d1"
   showgrid="false"
   inkscape:zoom="1.3916667"
   inkscape:cx="128.98204"
   inkscape:cy="300"
   inkscape:window-width="1920"
   inkscape:window-height="1051"
   inkscape:window-x="2151"
   inkscape:window-y="2151"
   inkscape:window-maximized="1"
   inkscape:current-layer="svg28" />
<desc
   id="desc9">Created with Fabric.js 3.5.0</desc>
<defs
   id="defs11"><rect
   x="525.26946"
   y="14.371257"
   width="62.51497"
   height="55.329341"
   id="rect456" /><rect
   x="110.65868"
   y="283.11377"
   width="429.7006"
   height="250.05988"
   id="rect348" /><rect
   x="73.293413"
   y="267.30539"
   width="449.1018"
   height="243.59281"
   id="rect342" />
</defs>
<rect
   x="0"
   y="0"
   width="100%"
   height="100%"
   fill="rgba(255,255,255,0)"
   id="rect13" />

<g
   transform="matrix(1,0,0,0.7586929,303.59281,159.1853)"
   style="fill:#ff0000"
   id="91520">
		
<path
   xml:space="preserve"
   font-family="Karla"
   font-size="312px"
   font-style="normal"
   font-weight="bold"
   style="white-space:pre;opacity:1;fill:#ff0000;fill-rule:nonzero;stroke:none;stroke-width:1;stroke-linecap:butt;stroke-linejoin:miter;stroke-miterlimit:4;stroke-dasharray:none;stroke-dashoffset:0"
   d="m -68.56,98.01 h -130.11 v -202.49 h 130.11 v 31.83 h -93.29 v 53.35 h 87.67 v 31.82 h -87.67 v 53.36 h 93.29 z"
   id="path18" /><path
   xml:space="preserve"
   font-family="Karla"
   font-size="312px"
   font-style="normal"
   font-weight="bold"
   style="white-space:pre;opacity:1;fill:#ff0000;fill-rule:nonzero;stroke:none;stroke-width:1;stroke-linecap:butt;stroke-linejoin:miter;stroke-miterlimit:4;stroke-dasharray:none;stroke-dashoffset:0"
   d="m -34.09,98.01 v -202.49 h 65.52 q 30.89,0 54.14,12.41 23.24,12.4 36.19,35.17 12.95,22.78 12.95,53.82 v 0 q 0,30.74 -12.95,53.43 -12.95,22.7 -36.19,35.18 -23.25,12.48 -54.14,12.48 v 0 z M 31.43,-71.09 H 2.73 V 64.94 h 28.7 q 19.66,0 33.93,-8.89 14.28,-8.89 22,-24.26 7.72,-15.37 7.72,-34.87 v 0 q 0,-19.81 -7.72,-35.1 -7.72,-15.28 -22,-24.1 -14.27,-8.81 -33.93,-8.81 z"
   id="path20" /><path
   xml:space="preserve"
   font-family="Karla"
   font-size="312px"
   font-style="normal"
   font-weight="bold"
   style="white-space:pre;opacity:1;fill:#ff0000;fill-rule:nonzero;stroke:none;stroke-width:1;stroke-linecap:butt;stroke-linejoin:miter;stroke-miterlimit:4;stroke-dasharray:none;stroke-dashoffset:0"
   d="M 198.2,98.01 H 161.38 V -104.48 H 198.2 Z"
   id="path22" /></g>

<text
   xml:space="preserve"
   id="text340"
   style="font-weight:bold;font-size:26.6667px;font-family:sans-serif;-inkscape-font-specification:'sans-serif Bold';white-space:pre;shape-inside:url(#rect342);display:inline;fill:#2b0000" /><text
   xml:space="preserve"
   id="text346"
   style="font-weight:bold;font-size:26.6667px;font-family:sans-serif;-inkscape-font-specification:'sans-serif Bold';white-space:pre;shape-inside:url(#rect348);display:inline;fill:#ff0000"
   transform="matrix(7.1123551,0,0,9.9245837,-747.19027,-2550.3205)"><tspan
     x="110.6582"
     y="307.37649"
     id="tspan500">Tsuya</tspan></text><text
   xml:space="preserve"
   id="text454"
   style="font-weight:bold;font-size:26.6667px;font-family:sans-serif;-inkscape-font-specification:'sans-serif Bold';white-space:pre;shape-inside:url(#rect456);display:inline;fill:#ff0000"
   transform="matrix(2.5329322,0,0,2.1963875,-800.25247,-31.050352)"><tspan
     x="525.26953"
     y="40.621127"
     id="tspan502">艶</tspan></text></svg>
